<svg width="383" height="115" viewBox="0 0 383 115" fill="none" xmlns="http://www.w3.org/2000/svg">
<g clip-path="url(#clip0_1_290)">
<path d="M57.4356 0.092041C25.7155 0.092041 0 25.7949 0 57.5004C0 89.2072 25.7155 114.908 57.4356 114.908C89.1591 114.908 114.872 89.2072 114.872 57.5004C114.872 25.797 89.1591 0.0947832 57.4349 0.0947832L57.4356 0.092041ZM83.7751 82.8913C83.5301 83.2927 83.2081 83.6419 82.8279 83.9189C82.4476 84.1958 82.0164 84.395 81.559 84.5052C81.1016 84.6154 80.627 84.6343 80.1622 84.5608C79.6975 84.4874 79.2518 84.3231 78.8507 84.0773C65.3654 75.844 48.3891 73.9793 28.3965 78.545C27.4707 78.7554 26.4993 78.5898 25.6956 78.0847C24.8919 77.5795 24.3218 76.776 24.1106 75.8508C24.0053 75.3928 23.9915 74.9184 24.07 74.455C24.1484 73.9916 24.3175 73.5482 24.5677 73.1502C24.8178 72.7522 25.144 72.4075 25.5276 72.1357C25.9112 71.8639 26.3447 71.6703 26.8032 71.5662C48.682 66.57 67.4491 68.7213 82.5886 77.9692C84.2758 79.0043 84.8108 81.2049 83.7751 82.8913ZM90.8051 67.2597C89.5089 69.3657 86.7518 70.0306 84.6462 68.735C69.2076 59.2499 45.6738 56.5029 27.4129 62.0434C25.0447 62.7584 22.5434 61.4244 21.8246 59.0613C21.4816 57.9253 21.6034 56.6996 22.1632 55.6531C22.723 54.6067 23.6751 53.8248 24.8108 53.479C45.6697 47.1529 71.6012 50.2172 89.3306 61.107C91.4361 62.4026 92.1014 65.1578 90.8051 67.2597ZM91.4087 50.9823C72.8975 39.9924 42.3564 38.9819 24.6826 44.3435C21.8445 45.2039 18.8432 43.6025 17.9831 40.7657C17.5696 39.4028 17.7145 37.9315 18.386 36.6754C19.0575 35.4193 20.2006 34.4812 21.564 34.0673C41.8522 27.9112 75.5792 29.1006 96.8914 41.7467C97.4988 42.1059 98.0294 42.5813 98.4527 43.1457C98.876 43.7101 99.1838 44.3524 99.3583 45.0359C99.5329 45.7194 99.5708 46.4306 99.47 47.1288C99.3692 47.8269 99.1315 48.4984 98.7707 49.1046C97.2618 51.6562 93.956 52.4973 91.4114 50.9823H91.4087ZM156.263 53.0882C146.346 50.7245 144.583 49.0655 144.583 45.5795C144.583 42.2862 147.683 40.0699 152.299 40.0699C156.771 40.0699 161.201 41.7529 165.851 45.2176C165.989 45.3225 166.167 45.3643 166.338 45.3369C166.425 45.3245 166.507 45.2946 166.582 45.2491C166.656 45.2036 166.72 45.1434 166.77 45.0722L171.613 38.2498C171.708 38.1145 171.749 37.9479 171.726 37.7839C171.703 37.6198 171.618 37.4707 171.489 37.3668C165.954 32.9293 159.727 30.7719 152.443 30.7719C141.737 30.7719 134.254 37.1947 134.254 46.3844C134.254 56.239 140.708 59.7284 151.86 62.4218C161.345 64.6067 162.95 66.437 162.95 69.7084C162.95 73.3349 159.713 75.5903 154.501 75.5903C148.712 75.5903 143.986 73.6366 138.705 69.0709C138.574 68.9596 138.404 68.9031 138.232 68.9132C138.054 68.9269 137.896 69.0092 137.786 69.1394L132.354 75.5972C132.128 75.8714 132.155 76.269 132.416 76.5021C138.561 81.9864 146.119 84.8794 154.281 84.8794C165.817 84.8794 173.272 78.5793 173.272 68.8241C173.293 60.5928 168.362 56.034 156.284 53.0972L156.263 53.0882ZM199.376 43.3125C194.376 43.3125 190.275 45.2813 186.887 49.3157V44.7747C186.887 44.603 186.82 44.4381 186.699 44.3161C186.578 44.1941 186.414 44.1251 186.242 44.1241H177.36C177.003 44.1241 176.715 44.4162 176.715 44.7747V95.231C176.715 95.5875 177.003 95.8823 177.36 95.8823H186.242C186.599 95.8823 186.887 95.5875 186.887 95.231V79.306C190.275 83.097 194.376 84.9548 199.376 84.9548C208.669 84.9548 218.079 77.8046 218.079 64.1357C218.093 50.464 208.683 43.3118 199.383 43.3118L199.376 43.3125ZM207.75 64.1357C207.75 71.0932 203.464 75.9537 197.318 75.9537C191.249 75.9537 186.667 70.8738 186.667 64.1357C186.667 57.3968 191.249 52.3184 197.318 52.3184C203.361 52.3177 207.75 57.2872 207.75 64.1357ZM242.187 43.3125C230.219 43.3125 220.843 52.5234 220.843 64.2844C220.843 75.9194 230.157 85.0302 242.043 85.0302C254.052 85.0302 263.455 75.8508 263.455 64.1357C263.455 52.4603 254.114 43.3138 242.187 43.3138V43.3125ZM242.187 76.0222C235.822 76.0222 231.021 70.9081 231.021 64.1323C231.021 57.3256 235.658 52.3862 242.043 52.3862C248.449 52.3862 253.277 57.4983 253.277 64.281C253.277 71.0864 248.614 76.0222 242.187 76.0222ZM289.01 44.1241H279.237V34.1386C279.237 34.0536 279.221 33.9694 279.189 33.8907C279.157 33.8121 279.109 33.7405 279.049 33.6802C278.989 33.6198 278.918 33.5719 278.84 33.539C278.761 33.5062 278.677 33.4891 278.592 33.4887H269.71C269.354 33.4887 269.059 33.7808 269.059 34.1386V44.1241H264.793C264.436 44.1241 264.148 44.4162 264.148 44.7747V52.4027C264.148 52.7606 264.436 53.0533 264.793 53.0533H269.059V72.7934C269.059 80.7662 273.03 84.8108 280.869 84.8108C284.052 84.8108 286.692 84.1527 289.182 82.7405C289.388 82.6308 289.511 82.4114 289.511 82.1784V74.9117C289.511 74.6923 289.395 74.4798 289.202 74.3632C289.109 74.3035 289.001 74.2695 288.891 74.2647C288.78 74.2599 288.67 74.2844 288.571 74.3358C286.864 75.1927 285.211 75.5903 283.359 75.5903C280.513 75.5903 279.237 74.2947 279.237 71.4017V53.0567H289.01C289.367 53.0567 289.655 52.7647 289.655 52.4061V44.7788C289.658 44.6937 289.644 44.6089 289.613 44.5295C289.582 44.4502 289.535 44.3779 289.476 44.317C289.416 44.2562 289.345 44.2081 289.266 44.1757C289.187 44.1432 289.102 44.1271 289.017 44.1283L289.01 44.1241ZM323.056 44.1632V42.9368C323.056 39.3288 324.442 37.7199 327.542 37.7199C329.394 37.7199 330.882 38.0873 332.548 38.6426C332.754 38.707 332.967 38.6748 333.131 38.5521C333.215 38.4919 333.283 38.4125 333.329 38.3207C333.376 38.2288 333.4 38.1272 333.399 38.0242V30.545C333.401 30.4053 333.357 30.2689 333.274 30.1565C333.191 30.044 333.073 29.9617 332.939 29.9219C331.184 29.3988 328.934 28.862 325.56 28.862C317.364 28.862 313.022 33.4784 313.022 42.2074V44.0858H308.756C308.4 44.0858 308.105 44.3778 308.105 44.7356V52.4027C308.105 52.7606 308.4 53.0533 308.756 53.0533H313.022V83.4946C313.022 83.8579 313.317 84.1459 313.674 84.1459H322.549C322.912 84.1459 323.2 83.8579 323.2 83.4946V53.0553H331.492L344.194 83.4946C342.754 86.6892 341.334 87.3268 339.4 87.3268C337.836 87.3268 336.184 86.8606 334.503 85.9351C334.344 85.8548 334.16 85.8376 333.989 85.8871C333.817 85.9488 333.673 86.0722 333.605 86.2367L330.594 92.8385C330.45 93.1538 330.573 93.5172 330.875 93.6817C334.016 95.3818 336.849 96.1085 340.354 96.1085C346.91 96.1085 350.538 93.051 353.728 84.8382L369.132 45.0517C369.172 44.9533 369.187 44.8465 369.175 44.741C369.163 44.6354 369.125 44.5346 369.063 44.4477C369.006 44.3608 368.927 44.2895 368.835 44.2402C368.743 44.1909 368.64 44.1652 368.535 44.1653H359.29C359.009 44.1653 358.762 44.3415 358.673 44.6013L349.201 71.6348L338.831 44.5835C338.785 44.4609 338.702 44.3552 338.594 44.2806C338.486 44.2059 338.359 44.1657 338.227 44.1653H323.056V44.1632ZM303.317 44.1241H294.436C294.079 44.1241 293.784 44.4162 293.784 44.7747V83.4946C293.784 83.8579 294.079 84.1459 294.436 84.1459H303.317C303.674 84.1459 303.969 83.8579 303.969 83.4946V44.7775C303.969 44.6919 303.952 44.6072 303.92 44.5281C303.887 44.4491 303.839 44.3772 303.778 44.3168C303.718 44.2563 303.646 44.2084 303.567 44.1758C303.488 44.1433 303.403 44.1266 303.317 44.1269V44.1241ZM298.928 26.4928C295.409 26.4928 292.556 29.3391 292.556 32.8553C292.556 36.3735 295.409 39.2232 298.928 39.2232C302.446 39.2232 305.293 36.3735 305.293 32.8553C305.293 29.3398 302.439 26.4928 298.928 26.4928ZM376.718 56.5742C373.206 56.5742 370.469 53.7532 370.469 50.3276C370.469 46.9019 373.24 44.0487 376.752 44.0487C380.263 44.0487 383 46.869 383 50.2919C383 53.7176 380.229 56.5742 376.718 56.5742ZM376.752 44.6698C373.549 44.6698 371.128 47.2132 371.128 50.3276C371.128 53.4406 373.535 55.9497 376.718 55.9497C379.921 55.9497 382.342 53.4084 382.342 50.2919C382.342 47.1789 379.934 44.6698 376.752 44.6698ZM378.137 50.9343L379.907 53.4077H378.412L376.82 51.1386H375.456V53.4077H374.207V46.8512H377.129C378.659 46.8512 379.66 47.6307 379.66 48.9428C379.667 50.0177 379.043 50.6745 378.144 50.9343H378.137ZM377.081 47.9762H375.456V50.0499H377.081C377.89 50.0499 378.377 49.653 378.377 49.012C378.377 48.3375 377.89 47.9762 377.081 47.9762Z" fill="#1ED760"/>
</g>
<defs>
<clipPath id="clip0_1_290">
<rect width="383" height="115" fill="white"/>
</clipPath>
</defs>
</svg>
